<svg xmlns="http://www.w3.org/2000/svg" width="38" height="38" viewBox="0 0 38 38" fill="none">
  <path d="M19 0C8.50725 0 0 8.50725 0 19C0 29.4928 8.50725 38 19 38C29.4928 38 38 29.4928 38 19C38 8.50725 29.4928 0 19 0ZM19 34.8333C11.4982 34.8333 5.20917 29.5814 3.58625 22.5641L9.52692 25.0626C9.91325 27.018 11.6454 28.5174 13.7544 28.5C16.093 28.4778 17.9693 26.5826 17.9851 24.2535L17.9946 24.2488L22.8823 20.6055C26.0094 20.6388 28.5 18.1181 28.5 15.0543C28.5 11.9874 26.011 9.5 22.9457 9.5C19.9136 9.5 17.4515 11.9304 17.3945 14.9483L13.8114 19.9611C12.9057 19.9421 12.0903 20.1907 11.381 20.6546L3.26958 17.2425C4.14833 9.33533 10.8648 3.16667 19 3.16667C27.7305 3.16667 34.8333 10.2695 34.8333 19C34.8333 27.7305 27.7305 34.8333 19 34.8333ZM14.6411 22.0226L12.5479 21.1438C12.9422 20.995 13.3269 20.9269 13.7164 20.9269C15.5183 20.9269 17.0002 22.3931 17.0161 24.1965C17.0319 26.0221 15.5721 27.512 13.7449 27.5278C12.3722 27.5342 11.2084 26.7156 10.6923 25.5518L12.7886 26.4322C14.0062 26.9436 15.4058 26.3704 15.9188 25.1544C16.4318 23.9384 15.8602 22.5356 14.6411 22.0226ZM19.171 15.0543C19.171 12.9723 20.8636 11.2797 22.9457 11.2797C25.0278 11.2797 26.7203 12.9723 26.7203 15.0543C26.7203 17.1348 25.0278 18.8306 22.9457 18.8306C20.8636 18.8306 19.171 17.1364 19.171 15.0543ZM22.9457 17.9059C21.3718 17.9059 20.0925 16.6282 20.0925 15.0559C20.0925 13.4837 21.3718 12.2043 22.9457 12.2043C24.5179 12.2043 25.7957 13.4853 25.7957 15.0559C25.7957 16.6266 24.5179 17.9059 22.9457 17.9059Z" fill="white"/>
</svg>